<svg xmlns="http://www.w3.org/2000/svg" id="Layer_1" viewBox="0 0 512 511"><style>.st0{fill:#1c73ba}.st6{fill:#1888c5}</style><path d="M108.5 204.4h-24C37.3 204.4-1 166.2-1 119h142.2-1.1c-47.2 0-85.5-38.3-85.5-85.5h248.6" class="st0"/><path fill="#f16523" d="M366 478.5v-445h-58.8c-113.6 0-205.8 92.1-205.8 205.8v239.2"/><path fill="#e44c20" d="M325.6 33.5c-78.2 0-141.7 92.1-141.7 205.7v239.2h-82.4V239.3c0-113.6 92.1-205.7 205.8-205.7h18.3z"/><path fill="#f7e017" d="M511 178.4v54.9H319.7L366 33.5c40 0 76.3 16.2 102.5 42.5 26.3 26.2 42.5 62.4 42.5 102.4z"/><path fill="#e5cd19" d="M511 233.4H319.7L366 194c0-.1 145-15.6 145 39.4z"/><path fill="#eaeaea" d="M366.1 290.2h-37.6c-70.9 0-128.4-57.5-128.4-128.4 0-35.4 14.4-67.5 37.6-90.8 23.2-23.2 55.3-37.6 90.8-37.6h37.6"/><path d="M247.2 395.2v83.3H101.5V249.6c30.6 0 59 9.4 82.4 25.5 7.4 5.1 14.3 10.8 20.6 17.1 26.4 26.4 42.7 62.8 42.7 103z" class="st6"/><path d="M183.9 275.1v203.4h-82.4V249.6c30.6 0 59 9.4 82.4 25.5z" class="st0"/><path fill="#353c44" d="M324.1 137.8c-4.4 0-8-3.6-8-8v-20.9c0-4.4 3.6-8 8-8s8 3.6 8 8v20.9c0 4.4-3.5 8-8 8z"/><path d="M209 373.6v104.8h-16V373.6c0-4.4 3.6-8 8-8s8 3.6 8 8z" class="st0"/><path d="M154.3 324.4v154h-16v-154c0-4.4 3.6-8 8-8s8 3.6 8 8z" class="st6"/></svg>