<svg height="512" width="512" xmlns="http://www.w3.org/2000/svg"><defs/><path d="M322.08 224H189.92a20 20 0 01-16.51-31.29l.49-.71 2.03-2.97c49.46-17.37 110.68-17.37 160.14 0l2.03 2.97.49.71A20 20 0 01322.08 224z" fill="#787680"/><path d="M336.07 189.03c-49.46-17.37-110.68-17.37-160.14 0l47.06-68.78a39.993 39.993 0 0166.02 0z" fill="#3e3d42"/><path d="M175.93 189.03L173.9 192M338.1 192l-2.03-2.97" fill="none"/><path d="M279.17 224H308a60 60 0 0160 60l8 80a20 20 0 01-20 20H156a20 20 0 01-20-20l8-80a60 60 0 0160-60h28.83" fill="#3e3d42"/><path d="M328 352H184v-84a12 12 0 0112-12h120a12 12 0 0112 12z" fill="#787680"/><path d="M340 384H172a12 12 0 01-12-12v-20h192v20a12 12 0 01-12 12z" fill="#acabb1"/><path d="M288 184.56V200a32 32 0 01-64 0v-15.44" fill="#ffbcab"/><circle cx="256" cy="304" fill="#ffda44" r="16"/><g><path d="M383.96 363.2L376 283.59a68.023 68.023 0 00-34.95-58.98 28.035 28.035 0 004.14-36.42l-49.58-72.46A47.932 47.932 0 00264 95.52V32a8 8 0 00-8-8h-8a8 8 0 000 16v55.52a47.932 47.932 0 00-31.61 20.21l-49.58 72.46a28.035 28.035 0 004.14 36.42A68.023 68.023 0 00136 283.59l-7.96 79.61a7.143 7.143 0 00-.04.8 28.031 28.031 0 0028 28h200a28.031 28.031 0 0028-28 7.143 7.143 0 00-.04-.8zm-50.78-163.72a11.974 11.974 0 01-11.1 16.52h-29.43a39.72 39.72 0 003.35-16v-11.77a217.735 217.735 0 0137.03 11.2c.05.02.1.03.15.05zm-103.59-74.71a31.988 31.988 0 0152.82 0l36 52.61a213.565 213.565 0 00-124.82 0zM280 185.58V200a24 24 0 01-48 0v-14.42a194.682 194.682 0 0148 0zm-101.18 13.9c.05-.02.1-.03.15-.05a217.735 217.735 0 0137.03-11.2V200a39.72 39.72 0 003.35 16h-29.43a11.974 11.974 0 01-11.1-16.52zM344 372a4 4 0 01-4 4H172a4 4 0 01-4-4v-12h176zm-152-28v-76a4 4 0 014-4h120a4 4 0 014 4v76zm167.69 31.41A20.112 20.112 0 00360 372v-20a8 8 0 00-8-8h-16v-76a20.02 20.02 0 00-20-20H196a20.02 20.02 0 00-20 20v76h-16a8 8 0 00-8 8v20a20.112 20.112 0 00.31 3.41 12.011 12.011 0 01-8.31-11.06l7.96-79.55a7.143 7.143 0 00.04-.8 52.063 52.063 0 0152-52h28.03a39.91 39.91 0 0047.94 0H308a52.063 52.063 0 0152 52 7.143 7.143 0 00.04.8l7.96 79.55a12.011 12.011 0 01-8.31 11.06z"/><path d="M256 280a24 24 0 1024 24 24.028 24.028 0 00-24-24zm0 32a8 8 0 118-8 8.009 8.009 0 01-8 8zM16 136v56a8 8 0 0016 0v-64a8 8 0 00-8-8h-8a8 8 0 000 16zM112 120h-8a8 8 0 000 16v56a8 8 0 0016 0v-64a8 8 0 00-8-8zM136 136v56a8 8 0 0016 0v-64a8 8 0 00-8-8h-8a8 8 0 000 16zM112 216h-8a8 8 0 000 16v56a8 8 0 0016 0v-64a8 8 0 00-8-8zM80 216h-8a8 8 0 000 16v56a8 8 0 0016 0v-64a8 8 0 00-8-8zM80 120H48a8 8 0 00-8 8v64a8 8 0 008 8h32a8 8 0 008-8v-64a8 8 0 00-8-8zm-8 64H56v-48h16zM16 40v56a8 8 0 0016 0V32a8 8 0 00-8-8h-8a8 8 0 000 16zM112 24h-8a8 8 0 000 16v56a8 8 0 0016 0V32a8 8 0 00-8-8zM80 24H48a8 8 0 00-8 8v64a8 8 0 008 8h32a8 8 0 008-8V32a8 8 0 00-8-8zm-8 64H56V40h16zM24 312h-8a8 8 0 000 16v56a8 8 0 0016 0v-64a8 8 0 00-8-8zM112 312h-8a8 8 0 000 16v56a8 8 0 0016 0v-64a8 8 0 00-8-8zM80 312H48a8 8 0 00-8 8v64a8 8 0 008 8h32a8 8 0 008-8v-64a8 8 0 00-8-8zm-8 64H56v-48h16zM16 296h32a8 8 0 008-8v-64a8 8 0 00-8-8H16a8 8 0 00-8 8v64a8 8 0 008 8zm8-64h16v48H24zM136 104h32a8 8 0 008-8V32a8 8 0 00-8-8h-32a8 8 0 00-8 8v64a8 8 0 008 8zm8-64h16v48h-16zM192 104h32a8 8 0 008-8V32a8 8 0 00-8-8h-32a8 8 0 00-8 8v64a8 8 0 008 8zm8-64h16v48h-16zM280 40v56a8 8 0 0016 0V32a8 8 0 00-8-8h-8a8 8 0 000 16zM376 24h-8a8 8 0 000 16v56a8 8 0 0016 0V32a8 8 0 00-8-8zM496 24h-8a8 8 0 000 16v56a8 8 0 0016 0V32a8 8 0 00-8-8zM464 24h-8a8 8 0 000 16v56a8 8 0 0016 0V32a8 8 0 00-8-8zM312 104h32a8 8 0 008-8V32a8 8 0 00-8-8h-32a8 8 0 00-8 8v64a8 8 0 008 8zm8-64h16v48h-16zM400 104h32a8 8 0 008-8V32a8 8 0 00-8-8h-32a8 8 0 00-8 8v64a8 8 0 008 8zm8-64h16v48h-16zM24 408h-8a8 8 0 000 16v56a8 8 0 0016 0v-64a8 8 0 00-8-8zM112 408h-8a8 8 0 000 16v56a8 8 0 0016 0v-64a8 8 0 00-8-8zM80 408H48a8 8 0 00-8 8v64a8 8 0 008 8h32a8 8 0 008-8v-64a8 8 0 00-8-8zm-8 64H56v-48h16zM256 408h-8a8 8 0 000 16v56a8 8 0 0016 0v-64a8 8 0 00-8-8zM168 408h-32a8 8 0 00-8 8v64a8 8 0 008 8h32a8 8 0 008-8v-64a8 8 0 00-8-8zm-8 64h-16v-48h16zM224 408h-32a8 8 0 00-8 8v64a8 8 0 008 8h32a8 8 0 008-8v-64a8 8 0 00-8-8zm-8 64h-16v-48h16zM288 408h-8a8 8 0 000 16v56a8 8 0 0016 0v-64a8 8 0 00-8-8zM376 408h-8a8 8 0 000 16v56a8 8 0 0016 0v-64a8 8 0 00-8-8zM496 408h-8a8 8 0 000 16v56a8 8 0 0016 0v-64a8 8 0 00-8-8zM464 408h-8a8 8 0 000 16v56a8 8 0 0016 0v-64a8 8 0 00-8-8zM344 408h-32a8 8 0 00-8 8v64a8 8 0 008 8h32a8 8 0 008-8v-64a8 8 0 00-8-8zm-8 64h-16v-48h16zM432 408h-32a8 8 0 00-8 8v64a8 8 0 008 8h32a8 8 0 008-8v-64a8 8 0 00-8-8zm-8 64h-16v-48h16zM400 136v56a8 8 0 0016 0v-64a8 8 0 00-8-8h-8a8 8 0 000 16zM376 120h-8a8 8 0 000 16v56a8 8 0 0016 0v-64a8 8 0 00-8-8zM496 120h-8a8 8 0 000 16v56a8 8 0 0016 0v-64a8 8 0 00-8-8zM496 216h-8a8 8 0 000 16v56a8 8 0 0016 0v-64a8 8 0 00-8-8zM464 216h-8a8 8 0 000 16v56a8 8 0 0016 0v-64a8 8 0 00-8-8zM464 120h-32a8 8 0 00-8 8v64a8 8 0 008 8h32a8 8 0 008-8v-64a8 8 0 00-8-8zm-8 64h-16v-48h16zM400 328v56a8 8 0 0016 0v-64a8 8 0 00-8-8h-8a8 8 0 000 16zM496 312h-8a8 8 0 000 16v56a8 8 0 0016 0v-64a8 8 0 00-8-8zM464 312h-32a8 8 0 00-8 8v64a8 8 0 008 8h32a8 8 0 008-8v-64a8 8 0 00-8-8zm-8 64h-16v-48h16zM400 296h32a8 8 0 008-8v-64a8 8 0 00-8-8h-32a8 8 0 00-8 8v64a8 8 0 008 8zm8-64h16v48h-16z"/></g></svg>